<svg xmlns="http://www.w3.org/2000/svg" enable-background="new 0 0 50 50" viewBox="0 0 50 50" id="home-robot">
  <path fill="#696967" d="M37.5,8.1c0,4-3.2,7.1-7.1,7.1H19.6c-3.9,0-7.1-3.2-7.1-7.1c0-3.9,3.2-7.1,7.1-7.1h10.8
			C34.3,1,37.5,4.2,37.5,8.1z"></path>
  <path fill="#444445" d="M19.6,13.2c-2.8,0-5.1-2.3-5.1-5.1c0-1.4,0.5-2.6,1.5-3.6c1-1,2.2-1.5,3.6-1.5h10.8c2.8,0,5.1,2.3,5.1,5.1
			c0,1.4-0.5,2.6-1.5,3.6c-1,1-2.2,1.5-3.6,1.5H19.6z"></path>
  <path fill="#59B1E3" d="M22.3,8.1c0,1.7-1.3,3-3,3c-1.6,0-3-1.3-3-3c0-1.6,1.3-3,3-3C21,5.1,22.3,6.5,22.3,8.1z"></path>
  <path fill="#C7C7C7" d="M21.1,8.1c0,1-0.8,1.8-1.8,1.8c-1,0-1.8-0.8-1.8-1.8c0-1,0.8-1.8,1.8-1.8C20.3,6.3,21.1,7.1,21.1,8.1z"></path>
  <path fill="#444445" d="M20.5,8.1c0,0.6-0.5,1.1-1.1,1.1c-0.6,0-1.1-0.5-1.1-1.1S18.7,7,19.3,7C20,7,20.5,7.5,20.5,8.1z"></path>
  <path fill="#59B1E3" d="M33.6,8.1c0,1.7-1.3,3-3,3c-1.6,0-3-1.3-3-3c0-1.6,1.3-3,3-3C32.3,5.1,33.6,6.5,33.6,8.1z"></path>
  <path fill="#C7C7C7" d="M32.4,8.1c0,1-0.8,1.8-1.8,1.8c-1,0-1.8-0.8-1.8-1.8c0-1,0.8-1.8,1.8-1.8C31.6,6.3,32.4,7.1,32.4,8.1z"></path>
  <path fill="#444445" d="M31.8,8.1c0,0.6-0.5,1.1-1.1,1.1c-0.6,0-1.1-0.5-1.1-1.1S30,7,30.6,7C31.3,7,31.8,7.5,31.8,8.1z"></path>
  <path fill="#FFF" d="M30.7 7.5c0 .3-.3.6-.6.6-.3 0-.6-.3-.6-.6 0-.3.3-.6.6-.6C30.4 7 30.7 7.2 30.7 7.5zM19.4 7.5c0 .3-.3.6-.6.6-.3 0-.6-.3-.6-.6 0-.3.3-.6.6-.6C19.1 7 19.4 7.2 19.4 7.5z"></path>
  <path fill="#696967" d="M25,11.7c-0.9,0-1.7-0.3-2.4-1c-0.2-0.2-0.2-0.5,0-0.7s0.5-0.2,0.7,0c0.9,0.9,2.4,0.9,3.3,0
				c0.2-0.2,0.5-0.2,0.7,0c0.2,0.2,0.2,0.5,0,0.7C26.7,11.4,25.9,11.7,25,11.7z"></path>
  <path fill="#C7C7C7" d="M26.7,15.2v8.4c-0.6-0.1-1.1-0.1-1.7-0.1c-0.6,0-1.2,0-1.7,0.1v-8.4H26.7z"></path>
  <circle cx="25" cy="19.5" r="3" fill="#696967"></circle>
  <circle cx="25" cy="19.5" r="1.5" fill="#E4E4E3"></circle>
  <path fill="#59B1E3" d="M18.5,49h12.9c0.3,0,0.6-0.1,0.9-0.2c4.6-2.3,7.8-6.7,7.8-11.8c0-7.5-6.8-13.5-15.1-13.5
			c-8.4,0-15.1,6.1-15.1,13.5c0,5.1,3.1,9.5,7.8,11.8C17.9,48.9,18.2,49,18.5,49z"></path>
  <g>
    <path fill="#EFEFED" d="M40.1 37c0 2.8-1 5.5-2.7 7.6-1.4-4.4-1.3-10.4.4-14.8C39.3 31.9 40.1 34.4 40.1 37zM12.5 44.6c-1.7-2.2-2.7-4.8-2.7-7.6 0-2.6.9-5.1 2.3-7.2C13.9 34.2 13.9 40.2 12.5 44.6z"></path>
  </g>
  <g>
    <path fill="#E4E4E3" d="M25,44c-2.5,0-5.1-0.5-7-1.6c-0.5-0.3-0.7-0.9-0.4-1.5c0.3-0.5,0.9-0.7,1.5-0.4c3.2,1.8,8.7,1.8,12,0
				c0.5-0.3,1.2-0.1,1.5,0.4c0.3,0.5,0.1,1.2-0.4,1.5C30.1,43.5,27.5,44,25,44z"></path>
  </g>
  <circle cx="18.2" cy="38.2" r=".8" fill="#444445"></circle>
  <g>
    <circle cx="31.8" cy="38.2" r=".8" fill="#444445"></circle>
    <circle cx="18.2" cy="44.9" r=".8" fill="#444445"></circle>
    <circle cx="31.8" cy="44.9" r=".8" fill="#444445"></circle>
  </g>
</svg>
